<svg width="48" height="41.014" viewBox="0 0 48 41.014" fill="none" xmlns="http://www.w3.org/2000/svg"><path fill-rule="evenodd" clip-rule="evenodd" d="M18.2 39.721v-18.948h0.108l8.651 18.948h4.002L21.932 20.823c6.543 -0.205 7.678 -5.032 7.678 -9.961 -0.001 -9.448 -5.461 -9.858 -11.139 -9.858h-4.055v38.717zm0 -35.431h0.757c4.813 0 6.759 0.616 6.759 6.727 0 5.083 -0.865 6.83 -6.164 6.83h-1.353z" fill="#CEAB4F"/><path fill-rule="evenodd" clip-rule="evenodd" d="M47.948 35.477c-1.511 0.997 -3.3 1.786 -5.203 1.786 -7.495 0 -7.495 -12.238 -7.495 -16.86 0 -7.354 0.951 -16.65 7.775 -16.65 1.957 0 3.356 0.736 4.922 1.733V1.441C46.661 0.548 44.536 0.18 42.969 0.18c-11.522 0 -11.746 15.337 -11.746 21.745 0 6.775 1.454 18.909 11.355 18.909 1.846 0 3.916 -0.683 5.37 -1.628z" fill="#CEAB4F"/><path fill-rule="evenodd" clip-rule="evenodd" d="M10.549 0.751H6.661v32.632c0 2.137 -0.333 4.118 -2.831 4.118 -1.499 0 -2.721 -0.782 -3.831 -1.72v3.805a10.664 10.664 0 0 0 4.553 0.991c5.662 0 5.996 -2.971 5.996 -7.871z" fill="#CEAB4F"/></svg>