<svg width="213" height="182" viewBox="0 0 213 182" fill="none" xmlns="http://www.w3.org/2000/svg">
<path fill-rule="evenodd" clip-rule="evenodd" d="M80.762 176.261V92.1795H81.2422L119.633 176.261H137.391L97.32 92.4069C126.352 91.4961 131.39 70.0771 131.39 48.2037C131.39 6.27672 107.158 4.45355 81.9618 4.45355H63.9677V176.261H80.762ZM80.762 19.0365H84.1206C105.476 19.0365 114.114 21.7718 114.114 48.8872C114.114 71.4455 110.277 79.1924 86.7626 79.1924H80.762V19.0365Z" fill="#CEAB4F"/>
<path fill-rule="evenodd" clip-rule="evenodd" d="M212.768 157.427C206.064 161.854 198.123 165.351 189.681 165.351C156.424 165.351 156.424 111.045 156.424 90.5342C156.424 57.903 160.642 16.6489 190.926 16.6489C199.611 16.6489 205.818 19.9126 212.768 24.3399V6.394C207.058 2.43025 197.627 0.799927 190.676 0.799927C139.545 0.799927 138.55 68.8577 138.55 97.2933C138.55 127.359 145.004 181.2 188.937 181.2C197.13 181.2 206.314 178.17 212.768 173.974L212.768 157.427Z" fill="#CEAB4F"/>
<path fill-rule="evenodd" clip-rule="evenodd" d="M46.8091 3.3349H29.5617V148.14C29.5617 157.622 28.0834 166.414 16.9991 166.414C10.3482 166.414 4.92582 162.944 0 158.78V175.666C6.32798 178.601 13.2259 180.102 20.201 180.062C45.3277 180.062 46.8091 166.876 46.8091 145.134V3.3349Z" fill="#CEAB4F"/>
</svg>
